<svg xmlns="http://www.w3.org/2000/svg" x="0px" y="0px" width="24" height="24" viewBox="0,0,256,256">
<g fill="#ceceb5" fill-rule="nonzero" stroke="none" stroke-width="1" stroke-linecap="butt" stroke-linejoin="miter" stroke-miterlimit="10" stroke-dasharray="" stroke-dashoffset="0" font-family="none" font-weight="none" font-size="none" text-anchor="none" style="mix-blend-mode: normal"><g transform="scale(10.66667,10.66667)"><path d="M11.98438,-0.01367c-0.55152,0.00862 -0.99193,0.46214 -0.98437,1.01367v1c-0.0051,0.36064 0.18438,0.69608 0.49587,0.87789c0.3115,0.18181 0.69676,0.18181 1.00825,0c0.3115,-0.18181 0.50097,-0.51725 0.49587,-0.87789v-1c0.0037,-0.2703 -0.10218,-0.53059 -0.29351,-0.72155c-0.19133,-0.19097 -0.45182,-0.29634 -0.72212,-0.29212zM4.18945,3.18945c-0.40692,0.00011 -0.77321,0.24676 -0.92633,0.62377c-0.15312,0.37701 -0.06255,0.80921 0.22907,1.09303l0.70117,0.70117c0.25082,0.26123 0.62327,0.36646 0.9737,0.2751c0.35044,-0.09136 0.62411,-0.36503 0.71546,-0.71546c0.09136,-0.35044 -0.01387,-0.72288 -0.2751,-0.9737l-0.70117,-0.70117c-0.18827,-0.19353 -0.4468,-0.30272 -0.7168,-0.30273zM19.78125,3.18945c-0.2598,0.00774 -0.50638,0.11632 -0.6875,0.30273l-0.70117,0.70117c-0.26123,0.25082 -0.36646,0.62326 -0.2751,0.9737c0.09136,0.35044 0.36503,0.6241 0.71546,0.71546c0.35044,0.09136 0.72288,-0.01387 0.9737,-0.2751l0.70117,-0.70117c0.29576,-0.28749 0.38469,-0.72707 0.22393,-1.10691c-0.16075,-0.37985 -0.53821,-0.62204 -0.9505,-0.60988zM12,5c-3.9,0 -7,3.1 -7,7c0,2.8 1.6,5.20078 4,6.30078v2.69922c0,1.1 0.9,2 2,2h2c1.1,0 2,-0.9 2,-2v-2.69922c2.4,-1.1 4,-3.50078 4,-6.30078c0,-3.9 -3.1,-7 -7,-7zM1,11c-0.36064,-0.0051 -0.69608,0.18438 -0.87789,0.49587c-0.18181,0.3115 -0.18181,0.69676 0,1.00825c0.18181,0.3115 0.51725,0.50097 0.87789,0.49587h1c0.36064,0.0051 0.69608,-0.18438 0.87789,-0.49587c0.18181,-0.3115 0.18181,-0.69676 0,-1.00825c-0.18181,-0.3115 -0.51725,-0.50097 -0.87789,-0.49587zM22,11c-0.36064,-0.0051 -0.69608,0.18438 -0.87789,0.49587c-0.18181,0.3115 -0.18181,0.69676 0,1.00825c0.18181,0.3115 0.51725,0.50097 0.87789,0.49587h1c0.36064,0.0051 0.69608,-0.18438 0.87789,-0.49587c0.18181,-0.3115 0.18181,-0.69676 0,-1.00825c-0.18181,-0.3115 -0.51725,-0.50097 -0.87789,-0.49587zM4.88086,18.08984c-0.2598,0.00774 -0.50638,0.11632 -0.6875,0.30273l-0.70117,0.70117c-0.26124,0.25082 -0.36647,0.62327 -0.27511,0.97371c0.09136,0.35044 0.36503,0.62411 0.71547,0.71547c0.35044,0.09136 0.72289,-0.01387 0.97371,-0.27511l0.70117,-0.70117c0.29576,-0.28749 0.38469,-0.72707 0.22393,-1.10691c-0.16075,-0.37985 -0.53821,-0.62204 -0.9505,-0.60988zM19.08984,18.08984c-0.40692,0.00011 -0.77321,0.24676 -0.92633,0.62377c-0.15312,0.37701 -0.06255,0.80922 0.22907,1.09303l0.70117,0.70117c0.25082,0.26124 0.62327,0.36648 0.97371,0.27512c0.35044,-0.09136 0.62411,-0.36503 0.71547,-0.71547c0.09136,-0.35044 -0.01388,-0.72289 -0.27512,-0.97371l-0.70117,-0.70117c-0.18827,-0.19353 -0.4468,-0.30272 -0.7168,-0.30273z"></path></g></g>
</svg>